<svg width="644" height="216" viewBox="0 0 644 216" fill="none" xmlns="http://www.w3.org/2000/svg">
<path d="M180 0H628C636.837 0 644 7.16344 644 16V200C644 208.837 636.837 216 628 216H180V0Z" fill="#FFC63F"/>
<path d="M0 16C0 7.16345 7.16344 0 16 0H180V216H16C7.16344 216 0 208.837 0 200V16Z" fill="#212121" fill-opacity="0.9"/>
<path d="M52.6746 64.108C52.6746 62.3373 53.3386 60.8433 54.6666 59.626C55.9946 58.4087 57.5993 57.8 59.4806 57.8H133.185C133.185 65.5467 129.699 69.42 122.727 69.42H65.9546V108.762H113.265C113.265 116.509 109.779 120.382 102.807 120.382H65.9546V164.04C65.9546 171.676 61.528 175.494 52.6746 175.494V64.108Z" fill="#FFC63F"/>
<path d="M225.684 69.752C225.684 65.5467 226.957 62.282 229.502 59.958C232.158 57.5233 235.81 56.306 240.458 56.306L304.866 154.246L306.028 153.25L301.214 145.282V56.306C306.305 56.306 310.123 57.4127 312.668 59.626C315.324 61.8393 316.652 65.0487 316.652 69.254V163.21C316.652 166.751 315.38 169.684 312.834 172.008C310.4 174.332 307.246 175.494 303.372 175.494L237.47 75.396L236.308 76.392L241.122 84.36V162.546C241.122 166.751 239.794 169.961 237.138 172.174C234.593 174.387 230.775 175.494 225.684 175.494V69.752ZM373.338 175.494C366.587 175.494 360.556 174.221 355.244 171.676C349.932 169.02 345.782 165.423 342.794 160.886C339.806 156.238 338.312 151.037 338.312 145.282V120.714C338.312 114.849 339.861 109.537 342.96 104.778C346.169 100.019 350.43 96.312 355.742 93.656C361.164 90.8893 367.03 89.506 373.338 89.506C379.646 89.506 385.4 90.834 390.602 93.49C395.914 96.146 400.064 99.798 403.052 104.446C406.15 109.094 407.7 114.351 407.7 120.216V130.84C407.7 132.611 407.036 134.105 405.708 135.322C404.38 136.539 402.775 137.148 400.894 137.148H352.422V144.618C352.422 150.262 354.192 154.799 357.734 158.23C361.386 161.661 366.587 163.376 373.338 163.376C380.088 163.376 385.234 161.882 388.776 158.894C392.317 155.906 394.088 151.867 394.088 146.776C397.408 146.555 400.174 147.219 402.388 148.768C404.712 150.207 405.874 152.365 405.874 155.242C405.874 158.783 404.324 162.103 401.226 165.202C398.238 168.301 394.254 170.791 389.274 172.672C384.294 174.553 378.982 175.494 373.338 175.494ZM394.254 125.86V120.216C394.254 114.683 392.317 110.201 388.444 106.77C384.681 103.229 379.646 101.458 373.338 101.458C367.03 101.458 361.939 103.229 358.066 106.77C354.303 110.201 352.422 114.683 352.422 120.216V125.86H394.254ZM449.949 175.494C446.408 175.494 443.475 174.719 441.151 173.17C438.827 171.51 437.222 169.241 436.337 166.364L415.255 90.834C416.804 89.9487 418.907 89.506 421.563 89.506C423.998 89.506 426.045 90.0593 427.705 91.166C429.365 92.2727 430.416 93.8773 430.859 95.98L444.803 151.092L443.143 158.23L443.973 158.562L462.067 94.32C462.51 92.8813 463.34 91.7193 464.557 90.834C465.774 89.9487 467.268 89.506 469.039 89.506C470.81 89.506 472.304 89.9487 473.521 90.834C474.738 91.7193 475.568 92.8813 476.011 94.32L491.781 151.756L489.789 158.894L490.785 159.226L507.053 95.98C507.496 93.8773 508.547 92.2727 510.207 91.166C511.867 90.0593 513.914 89.506 516.349 89.506C519.005 89.506 521.108 89.9487 522.657 90.834L501.575 166.364C500.8 169.241 499.14 171.51 496.595 173.17C494.05 174.719 491.006 175.494 487.465 175.494L467.545 103.782L466.881 103.948L468.541 110.09L449.949 175.494ZM567.629 175.494C561.985 175.494 556.673 174.664 551.693 173.004C546.713 171.233 542.674 168.743 539.575 165.534C536.587 162.325 535.093 158.562 535.093 154.246C535.093 148.934 538.302 146.057 544.721 145.614C545.828 151.811 548.428 156.404 552.523 159.392C556.728 162.269 562.04 163.708 568.459 163.708C574.878 163.708 579.858 162.767 583.399 160.886C586.94 159.005 588.711 156.127 588.711 152.254C588.711 149.487 587.992 147.274 586.553 145.614C585.114 143.843 582.79 142.349 579.581 141.132C576.482 139.804 572 138.531 566.135 137.314C558.831 135.654 553.021 133.883 548.705 132.002C544.389 130.121 541.069 127.631 538.745 124.532C536.532 121.433 535.425 117.339 535.425 112.248C535.425 107.932 536.753 104.059 539.409 100.628C542.065 97.0867 545.717 94.3753 550.365 92.494C555.124 90.502 560.491 89.506 566.467 89.506C572 89.506 577.202 90.2807 582.071 91.83C587.051 93.3793 591.035 95.5927 594.023 98.47C597.122 101.347 598.671 104.667 598.671 108.43C598.671 110.975 597.675 113.023 595.683 114.572C593.691 116.011 590.924 116.841 587.383 117.062C587.051 112.193 585.059 108.375 581.407 105.608C577.866 102.731 572.886 101.292 566.467 101.292C561.155 101.292 556.95 102.288 553.851 104.28C550.752 106.272 549.203 108.928 549.203 112.248C549.203 115.789 550.642 118.445 553.519 120.216C556.507 121.876 561.542 123.481 568.625 125.03C580.245 127.354 588.766 130.563 594.189 134.658C599.722 138.642 602.489 144.341 602.489 151.756C602.489 159.281 599.446 165.147 593.359 169.352C587.272 173.447 578.696 175.494 567.629 175.494Z" fill="#212121" fill-opacity="0.9"/>
</svg>
